<?xml version="1.0" encoding="iso-8859-1"?>
<!-- Uploaded to: SVG Repo, www.svgrepo.com, Generator: SVG Repo Mixer Tools -->
<!DOCTYPE svg PUBLIC "-//W3C//DTD SVG 1.1//EN" "http://www.w3.org/Graphics/SVG/1.1/DTD/svg11.dtd">
<svg fill="#000000" version="1.1" id="Capa_1" xmlns="http://www.w3.org/2000/svg" xmlns:xlink="http://www.w3.org/1999/xlink" 
	 width="800px" height="800px" viewBox="0 0 586.488 586.488"
	 xml:space="preserve">
<g>
	<g>
		<path d="M73.059,216.24c-12.436,7.328-12.436,19.209,0,26.537l31.791,18.735c0.669,3.961,1.465,7.875,2.371,11.746l-22.008,29.613
			c-8.608,11.586-3.99,22.533,10.314,24.451l36.589,4.904c1.702,2.66,3.46,5.275,5.288,7.842l-9.241,35.752
			c-3.61,13.975,4.79,22.375,18.764,18.764l35.753-9.24c3.252,2.309,6.565,4.537,9.96,6.646l5.377,36.492
			c2.105,14.279,13.109,18.756,24.582,9.996l29.319-22.389c1.521,0.336,3.067,0.588,4.602,0.891v133.322
			c0,20.627,15.786,36.186,36.721,36.186s36.72-15.559,36.72-36.186V416.98c2.351-0.461,4.713-0.898,7.03-1.445l29.612,22.008
			c11.587,8.609,22.534,3.99,24.451-10.314l4.904-36.59c2.66-1.701,5.275-3.459,7.842-5.287l35.753,9.242
			c13.975,3.609,22.375-4.791,18.764-18.764l-9.241-35.754c2.31-3.252,4.537-6.564,6.646-9.959l36.492-5.377
			c14.279-2.105,18.756-13.109,9.996-24.582l-22.388-29.32c0.678-3.08,1.281-6.185,1.812-9.318l31.796-18.735
			c12.436-7.328,12.436-19.209,0-26.537l-31.796-18.735c-0.669-3.961-1.465-7.875-2.37-11.746l22.008-29.613
			c8.608-11.587,3.99-22.534-10.314-24.451l-36.59-4.904c-1.701-2.66-3.46-5.275-5.287-7.842l9.241-35.753
			c3.61-13.974-4.79-22.375-18.765-18.764l-35.753,9.241c-3.252-2.309-6.564-4.537-9.959-6.646l-5.378-36.491
			c-2.104-14.28-13.112-18.756-24.582-9.996l-29.318,22.387c-3.08-0.678-6.186-1.281-9.318-1.812L306.513,9.327
			c-7.328-12.436-19.209-12.436-26.537,0L261.24,41.123c-3.962,0.669-7.874,1.464-11.746,2.37l-29.612-22.007
			c-11.588-8.609-22.534-3.99-24.452,10.314l-4.904,36.59c-2.66,1.701-5.275,3.459-7.842,5.288l-35.753-9.241
			c-13.974-3.611-22.374,4.79-18.764,18.764l9.241,35.753c-2.31,3.251-4.537,6.564-6.646,9.959l-36.491,5.377
			c-14.28,2.105-18.756,13.109-9.996,24.582l22.387,29.319c-0.677,3.081-1.281,6.186-1.812,9.319L73.059,216.24z M233.056,231.764
			c4.704,14.839,12.823,28.021,23.477,38.674c3.174,3.174,6.598,6.096,10.2,8.792c3.243,2.432,6.646,4.655,10.199,6.667V166.782
			c0-10.522,8.16-15.786,16.32-15.786s16.32,5.263,16.32,15.786v24.488c17.772-10.249,29.617-28.038,33.02-49.254
			c1.326-8.266,7.115-11.832,13.395-11.832c9.478,0,20.062,8.131,18.078,20.51c-5.654,35.263-31.321,64.493-64.492,76.41v122.747
			c3.554-1.191,6.944-2.688,10.2-4.391c3.606-1.885,7.01-4.062,10.2-6.506c19.429-14.877,30.652-39.369,27.079-65.575
			c-2.804-20.571,28.641-29.454,31.473-8.678c6.72,49.294-17.152,92.366-58.557,111.425c-3.292,1.514-6.695,2.877-10.199,4.08
			c-3.31,1.135-6.712,2.125-10.2,2.967v36.666v130.463c0,10.521-8.16,15.785-16.32,15.785s-16.32-5.264-16.32-15.785V419.852
			v-97.977c-3.484-1.402-6.883-2.953-10.2-4.627c-3.496-1.766-6.903-3.668-10.199-5.719c-25.929-16.17-45.411-40.989-54.95-71.087
			C195.201,220.32,226.72,211.776,233.056,231.764z"/>
	</g>
</g>
</svg>